# xmcd
#
# Track frame offsets: 
#        182
#        15440
#        27152
#        46375
#        65190
#        78942
#        94337
#        110340
#        124355
#        143022
#
# Disc length: 2125 seconds
#
# Revision: 6
# Processed by: cddbd v1.5.2PL0 Copyright (c) Steve Scherf et al.
# Submitted via: ExactAudioCopy v1.0b1
#
DISCID=82084b0a
DTITLE=Blues Brothers - Best Of
DYEAR=1981
DGENRE=R&B
TTITLE0=Expressway To Your Heart
TTITLE1=Everybody Needs Somebody To Love
TTITLE2=I Don't Know
TTITLE3=She Caught The Katy
TTITLE4=Soul Man
TTITLE5=Rubber Biscuit
TTITLE6=Going Back To Miami
TTITLE7=Gimme Some Lovin'
TTITLE8=B Movie Box Car Blues
TTITLE9=Flip Flop And Fly
EXTD=YEAR: 1981
EXTT0=
EXTT1=
EXTT2=
EXTT3=
EXTT4=
EXTT5=
EXTT6=
EXTT7=
EXTT8=
EXTT9=
PLAYORDER=
